<svg id="Layer_1" data-name="Layer 1" xmlns="http://www.w3.org/2000/svg" viewBox="0 0 512 512"><defs><style>.cls-1{fill:#6d4135;}</style></defs><title>small-grid-view-outline</title><path class="cls-1" d="M106.67,128H21.33A21.33,21.33,0,0,1,0,106.67V21.33A21.33,21.33,0,0,1,21.33,0h85.33A21.33,21.33,0,0,1,128,21.33v85.33A21.33,21.33,0,0,1,106.67,128Zm-64-42.67H85.33V42.67H42.67Z"/><path class="cls-1" d="M298.67,128H213.33A21.33,21.33,0,0,1,192,106.67V21.33A21.33,21.33,0,0,1,213.33,0h85.33A21.33,21.33,0,0,1,320,21.33v85.33A21.33,21.33,0,0,1,298.67,128Zm-64-42.67h42.67V42.67H234.67Z"/><path class="cls-1" d="M490.67,128H405.33A21.33,21.33,0,0,1,384,106.67V21.33A21.33,21.33,0,0,1,405.33,0h85.33A21.33,21.33,0,0,1,512,21.33v85.33A21.33,21.33,0,0,1,490.67,128Zm-64-42.67h42.67V42.67H426.67Z"/><path class="cls-1" d="M106.67,320H21.33A21.33,21.33,0,0,1,0,298.67V213.33A21.33,21.33,0,0,1,21.33,192h85.33A21.33,21.33,0,0,1,128,213.33v85.33A21.33,21.33,0,0,1,106.67,320Zm-64-42.67H85.33V234.67H42.67Z"/><path class="cls-1" d="M298.67,320H213.33A21.33,21.33,0,0,1,192,298.67V213.33A21.33,21.33,0,0,1,213.33,192h85.33A21.33,21.33,0,0,1,320,213.33v85.33A21.33,21.33,0,0,1,298.67,320Zm-64-42.67h42.67V234.67H234.67Z"/><path class="cls-1" d="M490.67,320H405.33A21.33,21.33,0,0,1,384,298.67V213.33A21.33,21.33,0,0,1,405.33,192h85.33A21.33,21.33,0,0,1,512,213.33v85.33A21.33,21.33,0,0,1,490.67,320Zm-64-42.67h42.67V234.67H426.67Z"/><path class="cls-1" d="M106.67,512H21.33A21.33,21.33,0,0,1,0,490.67V405.33A21.33,21.33,0,0,1,21.33,384h85.33A21.33,21.33,0,0,1,128,405.33v85.33A21.33,21.33,0,0,1,106.67,512Zm-64-42.67H85.33V426.67H42.67Z"/><path class="cls-1" d="M298.67,512H213.33A21.33,21.33,0,0,1,192,490.67V405.33A21.33,21.33,0,0,1,213.33,384h85.33A21.33,21.33,0,0,1,320,405.33v85.33A21.33,21.33,0,0,1,298.67,512Zm-64-42.67h42.67V426.67H234.67Z"/><path class="cls-1" d="M490.67,512H405.33A21.33,21.33,0,0,1,384,490.67V405.33A21.33,21.33,0,0,1,405.33,384h85.33A21.33,21.33,0,0,1,512,405.33v85.33A21.33,21.33,0,0,1,490.67,512Zm-64-42.67h42.67V426.67H426.67Z"/></svg>