<svg id="Layer_1" data-name="Layer 1" xmlns="http://www.w3.org/2000/svg" viewBox="0 0 512 512"><defs><style>.cls-1{fill:#6d4135;}</style></defs><title>list-view-outline</title><path class="cls-1" d="M490.67,128H21.33A21.33,21.33,0,0,1,0,106.67V21.33A21.33,21.33,0,0,1,21.33,0H490.67A21.33,21.33,0,0,1,512,21.33v85.33A21.33,21.33,0,0,1,490.67,128Zm-448-42.67H469.33V42.67H42.67Z"/><path class="cls-1" d="M490.67,320H21.33A21.33,21.33,0,0,1,0,298.67V213.33A21.33,21.33,0,0,1,21.33,192H490.67A21.33,21.33,0,0,1,512,213.33v85.33A21.33,21.33,0,0,1,490.67,320Zm-448-42.67H469.33V234.67H42.67Z"/><path class="cls-1" d="M490.67,512H21.33A21.33,21.33,0,0,1,0,490.67V405.33A21.33,21.33,0,0,1,21.33,384H490.67A21.33,21.33,0,0,1,512,405.33v85.33A21.33,21.33,0,0,1,490.67,512Zm-448-42.67H469.33V426.67H42.67Z"/></svg>